<?xml version="1.0" encoding="UTF-8"?>
<svg width="744px" height="733px" viewBox="0 0 744 733" version="1.1" xmlns="http://www.w3.org/2000/svg" xmlns:xlink="http://www.w3.org/1999/xlink">
    <!-- Generator: Sketch 51.3 (57544) - http://www.bohemiancoding.com/sketch -->
    <title>logo</title>
    <desc>Created with Sketch.</desc>
    <defs></defs>
    <g id="Page-1" stroke="none" stroke-width="1" fill="none" fill-rule="evenodd">
        <g id="logo" transform="translate(45.000000, 0.000000)" fill-rule="nonzero">
            <g id="Group-2">
                <polygon id="Polygon" fill="#000000" points="326.92459 0 569.576913 88.3182227 698.689517 311.947813 653.84918 566.25 456.037194 732.233964 197.811986 732.233964 4.8316906e-13 566.25 -44.8403368 311.947813 84.2722673 88.3182227"></polygon>
                <g id="Group" transform="translate(327.000000, 378.000000) rotate(270.000000) translate(-327.000000, -378.000000) translate(103.000000, 253.000000)" stroke="#FFFFFF" stroke-linecap="round" stroke-linejoin="bevel" stroke-width="21">
                    <path d="M140.785756,119.294259 L57.3464115,244.940221 L222.197486,244.940221 L447.680626,244.940221 C178.285616,190.016006 33.8087655,148.822845 14.2500728,121.360738 C14.2500728,121.360738 14.2500728,121.360738 14.2500728,121.360738 L14.2500728,121.360738 C-10.3561852,86.811409 -2.29573391,38.8563309 32.2535948,14.2500728 C66.8029234,-10.3561852 114.758002,-2.29573391 139.36426,32.2535948 C157.823053,58.1713476 158.388379,92.7875686 140.785743,119.29425 Z" id="Path-2"></path>
                    <path d="M140.785756,124.294259 L57.3464115,249.940221 L222.197486,249.940221 L447.680626,249.940221 C178.285616,195.016006 33.8087655,153.822845 14.2500728,126.360738 C14.2500728,126.360738 14.2500728,126.360738 14.2500728,126.360738 L14.2500728,126.360738 C-10.3561852,91.811409 -2.29573391,43.8563309 32.2535948,19.2500728 C66.8029234,-5.35618524 114.758002,2.70426609 139.36426,37.2535948 C157.823053,63.1713476 158.388379,97.7875686 140.785743,124.29425 Z" id="Path-2" transform="translate(223.840313, 127.470110) scale(1, -1) translate(-223.840313, -127.470110) "></path>
                </g>
            </g>
        </g>
    </g>
</svg>